<?xml version="1.0" standalone="no"?>
<!DOCTYPE svg PUBLIC "-//W3C//DTD SVG 20010904//EN"
 "http://www.w3.org/TR/2001/REC-SVG-20010904/DTD/svg10.dtd">
<svg version="1.0" xmlns="http://www.w3.org/2000/svg"
 width="500.000000pt" height="500.000000pt" viewBox="0 0 500.000000 500.000000"
 preserveAspectRatio="xMidYMid meet">
<metadata>
Created by potrace 1.14, written by Peter Selinger 2001-2017
</metadata>
<g transform="translate(0.000000,500.000000) scale(0.100000,-0.100000)"
fill="#000000" stroke="none">
<path d="M2205 4715 c-863 -90 -1626 -591 -1983 -1301 -191 -381 -262 -817
-197 -1214 115 -702 585 -1311 1270 -1645 239 -116 429 -180 684 -229 172 -33
314 -46 515 -46 207 0 360 13 527 46 528 102 996 348 1355 710 382 386 598
870 621 1394 24 560 -212 1135 -643 1564 -379 376 -911 633 -1474 711 -160 22
-512 28 -675 10z m-775 -1623 c0 -88 -4 -123 -15 -138 -13 -17 -14 -5 -15 113
l0 133 -472 3 -473 2 488 3 487 2 0 -118z m670 -7 c0 -71 -4 -125 -9 -125 -5
0 -13 -10 -17 -22 -4 -13 -11 -26 -16 -29 -5 -3 -3 -45 6 -102 9 -53 16 -118
16 -144 0 -101 -17 -66 -39 85 -17 111 -20 157 -12 160 6 2 11 9 11 17 0 7 7
18 15 25 12 10 15 38 15 131 l0 119 -272 3 -273 2 288 3 287 2 0 -125z m610
121 c0 -2 25 -122 55 -266 56 -265 61 -305 47 -328 -9 -13 -9 -13 -87 360
l-48 228 -211 3 -211 2 228 3 c125 1 227 0 227 -2z m650 -121 c0 -104 -2 -125
-15 -125 -12 0 -15 20 -15 120 l0 120 -237 3 -238 2 253 3 252 2 0 -125z m670
0 c0 -77 -4 -125 -10 -125 -6 0 -10 47 -10 120 l0 120 -277 3 -278 2 288 3
287 2 0 -125z m590 0 c0 -104 -2 -125 -15 -125 -12 0 -15 20 -15 120 l0 120
-252 3 -253 2 268 3 267 2 0 -125z m-3250 -26 l0 -111 -45 -72 c-151 -243
-305 -656 -305 -821 l0 -45 -195 0 -196 0 6 53 c25 216 130 474 294 723 l78
119 -86 3 c-47 2 -110 0 -138 -3 l-53 -6 0 -65 0 -64 -135 0 -135 0 0 200 0
200 455 0 455 0 0 -111z m670 -4 l0 -115 -29 0 c-28 0 -29 -2 -25 -32 3 -18
18 -112 32 -208 26 -164 29 -175 50 -178 15 -2 22 2 22 14 0 9 7 22 15 28 9 7
39 120 80 301 36 159 69 293 73 297 5 5 96 7 202 6 l194 -3 67 -320 c38 -176
68 -321 69 -322 0 -2 9 -3 19 -3 12 0 21 9 25 25 4 14 11 23 16 20 6 -3 10 -3
10 2 1 4 9 62 19 128 15 96 16 123 6 137 -10 15 -12 12 -13 -26 -1 -103 -35
-117 -37 -15 -1 35 -7 74 -13 86 -7 13 -9 30 -4 43 7 19 10 20 20 7 13 -15 52
-12 52 4 0 5 7 9 15 9 8 0 15 5 15 10 0 6 -14 10 -30 10 l-31 0 3 103 3 102
215 0 215 0 3 -90 c4 -115 -1 -133 -35 -137 -26 -3 -27 -5 -138 -463 l-111
-460 -207 -3 c-114 -1 -207 0 -207 2 0 5 -127 608 -136 646 -5 21 -7 23 -17
10 -7 -8 -22 -14 -33 -12 -25 4 -16 33 -115 -410 l-52 -238 -206 0 -206 0
-114 443 c-63 243 -118 457 -123 475 -8 27 -14 32 -38 32 l-30 0 0 105 0 105
255 0 255 0 0 -115z m1938 20 c4 -115 -1 -135 -33 -135 l-25 0 0 -335 0 -336
25 -24 c17 -18 35 -25 64 -25 56 0 83 15 114 63 l27 41 0 318 0 318 -30 0 -30
0 0 105 0 105 233 -2 232 -3 3 -98 c3 -107 -5 -127 -52 -127 l-26 0 0 -313 c0
-339 -6 -389 -56 -475 -34 -57 -113 -118 -182 -139 -90 -28 -324 -25 -418 4
-128 41 -209 114 -255 230 -22 56 -24 71 -27 386 l-3 327 -40 0 -39 0 0 98 c0
54 3 102 7 106 4 3 119 5 257 4 l251 -3 3 -90z m-2469 -58 c-1 -35 1 -69 5
-76 12 -18 -2 -27 -22 -14 -28 18 -21 153 8 153 7 0 11 -23 9 -63z m1931 -2
c0 -63 -1 -65 -20 -55 -32 17 -26 120 6 120 11 0 14 -16 14 -65z m620 -54 c0
-6 12 -16 28 -23 20 -10 28 -22 30 -47 3 -31 2 -33 -12 -22 -9 8 -16 20 -16
27 0 9 -11 14 -30 14 -30 0 -37 11 -24 44 7 17 24 22 24 7z m-50 -31 c0 -13
-7 -20 -20 -20 -20 0 -20 -7 -20 -287 0 -313 2 -326 55 -353 l30 -15 -34 -3
c-24 -3 -40 3 -55 18 -20 20 -21 31 -24 330 -3 269 -1 310 12 310 8 0 18 9 21
20 3 11 13 20 21 20 8 0 14 -9 14 -20z m-2437 -27 c5 -28 -13 -26 -24 3 -5 14
-3 21 6 21 7 0 15 -11 18 -24z m1707 0 c-3 -41 -218 -887 -227 -890 -6 -2 4
57 27 149 21 84 70 287 110 451 40 163 76 297 81 297 5 0 9 -3 9 -7z m1258
-295 c-4 -316 -11 -371 -54 -423 -16 -20 -16 -20 -8 0 31 86 34 128 34 422 0
268 2 303 16 303 14 0 15 -33 12 -302z m-3758 212 c0 -27 -4 -50 -10 -50 -5 0
-10 23 -10 50 0 28 5 50 10 50 6 0 10 -22 10 -50z m545 -20 c-9 -16 -18 -30
-21 -30 -2 0 2 14 11 30 9 17 18 30 21 30 2 0 -2 -13 -11 -30z m-71 -137 c-93
-201 -159 -408 -177 -555 -8 -67 -15 -98 -24 -98 -25 0 12 188 71 365 24 72
47 147 50 168 4 20 10 37 14 37 4 0 12 8 17 19 60 114 76 141 80 141 2 0 -12
-35 -31 -77z m1166 -88 c0 -20 -120 -558 -125 -564 -3 -2 -8 -2 -11 1 -7 8
119 578 129 578 4 0 7 -7 7 -15z"/>
<path d="M2846 2855 c-3 -8 -1 -15 4 -15 6 0 10 7 10 15 0 8 -2 15 -4 15 -2 0
-6 -7 -10 -15z"/>
</g>
</svg>
